HIERARCHY
ROOT Hips
{
	OFFSET 56.001900 -2.742996 96.802597
	CHANNELS 6 Xposition Yposition Zposition Xrotation Yrotation Zrotation
	JOINT spine
	{
		OFFSET 0.000000 -0.458068 7.965683
		CHANNELS 3 Xrotation Yrotation Zrotation
		JOINT spine1
		{
			OFFSET 0.000000 -0.000002 10.243103
			CHANNELS 3 Xrotation Yrotation Zrotation
			JOINT spine2
			{
				OFFSET 0.000000 -0.000001 9.814751
				CHANNELS 3 Xrotation Yrotation Zrotation
				JOINT Neck
				{
					OFFSET 0.000000 -1.201384 25.198601
					CHANNELS 3 Xrotation Yrotation Zrotation
					JOINT Head
					{
						OFFSET 0.000000 -0.000001 7.613144
						CHANNELS 3 Xrotation Yrotation Zrotation
						End Site
						{
							OFFSET 0.000000 6.077327 18.428101
						}
					}
				}
				JOINT RightShoulder
				{
					OFFSET -4.132698 0.575449 10.599205
					CHANNELS 3 Xrotation Yrotation Zrotation
					JOINT RightArm
					{
						OFFSET 0.000000 -0.000002 13.901794
						CHANNELS 3 Xrotation Yrotation Zrotation
						JOINT RightArmRoll
						{
							OFFSET 0.000000 -0.000001 7.017883
							CHANNELS 3 Xrotation Yrotation Zrotation
							JOINT RightForeArm
							{
								OFFSET 0.000000 -0.000003 20.440598
								CHANNELS 3 Xrotation Yrotation Zrotation
								JOINT RightForeArmRoll
								{
									OFFSET 0.000000 -0.000001 7.875153
									CHANNELS 3 Xrotation Yrotation Zrotation
									JOINT RightHand
									{
										OFFSET 0.000000 -0.000003 15.803696
										CHANNELS 3 Xrotation Yrotation Zrotation
										End Site
										{
											OFFSET 0.000000 0.000000 0.100006
										}
									}
								}
							}
						}
					}
				}
				JOINT LeftShoulder
				{
					OFFSET 4.132698 0.575449 10.599205
					CHANNELS 3 Xrotation Yrotation Zrotation
					JOINT LeftArm
					{
						OFFSET 0.000000 -0.000002 13.901794
						CHANNELS 3 Xrotation Yrotation Zrotation
						JOINT LeftArmRoll
						{
							OFFSET 0.000000 -0.000001 7.017883
							CHANNELS 3 Xrotation Yrotation Zrotation
							JOINT LeftForeArm
							{
								OFFSET 0.000000 -0.000003 20.440598
								CHANNELS 3 Xrotation Yrotation Zrotation
								JOINT LeftForeArmRoll
								{
									OFFSET 0.000000 -0.000001 7.875153
									CHANNELS 3 Xrotation Yrotation Zrotation
									JOINT LeftHand
									{
										OFFSET 0.000000 -0.000003 15.803696
										CHANNELS 3 Xrotation Yrotation Zrotation
										End Site
										{
											OFFSET 0.000000 0.000000 0.100006
										}
									}
								}
							}
						}
					}
				}
			}
		}
	}
	JOINT RightUpLeg
	{
		OFFSET -7.060478 1.086100 -1.294701
		CHANNELS 3 Xrotation Yrotation Zrotation
		JOINT RightUpLegRoll
		{
			OFFSET 0.000000 -0.000003 18.530800
			CHANNELS 3 Xrotation Yrotation Zrotation
			JOINT RightLeg
			{
				OFFSET 0.000000 0.000004 -22.947601
				CHANNELS 3 Xrotation Yrotation Zrotation
				JOINT RightLegRoll
				{
					OFFSET 0.000000 -0.000004 23.022598
					CHANNELS 3 Xrotation Yrotation Zrotation
					JOINT RightFoot
					{
						OFFSET 0.000000 -0.000003 19.162506
						CHANNELS 3 Xrotation Yrotation Zrotation
						JOINT RightToeBase
						{
							OFFSET 0.000000 -0.000003 16.018799
							CHANNELS 3 Xrotation Yrotation Zrotation
							End Site
							{
								OFFSET 0.006790 0.894206 7.757828
							}
						}
					}
				}
			}
		}
	}
	JOINT LeftUpLeg
	{
		OFFSET 7.060478 1.086100 -1.294701
		CHANNELS 3 Xrotation Yrotation Zrotation
		JOINT LeftUpLegRoll
		{
			OFFSET 0.000000 -0.000003 18.530899
			CHANNELS 3 Xrotation Yrotation Zrotation
			JOINT LeftLeg
			{
				OFFSET 0.000000 -0.000004 22.947502
				CHANNELS 3 Xrotation Yrotation Zrotation
				JOINT LeftLegRoll
				{
					OFFSET 0.000000 -0.000004 23.235504
					CHANNELS 3 Xrotation Yrotation Zrotation
					JOINT LeftFoot
					{
						OFFSET 0.000000 -0.000003 18.949600
						CHANNELS 3 Xrotation Yrotation Zrotation
						JOINT LeftToeBase
						{
							OFFSET 0.000000 -0.000003 16.018799
							CHANNELS 3 Xrotation Yrotation Zrotation
							End Site
							{
								OFFSET -0.030430 0.894206 7.757828
							}
						}
					}
				}
			}
		}
	}
}
MOTION
Frames: 10
Frame Time: 0.041667
58.848198 -11.712114 97.075699 -1.652893 -3.240254 4.170986 -0.985921 0.178367 -0.244356 2.031810 0.358585 -0.487354 3.676870 0.352720 -0.491614 7.617046 20.879940 -0.443026 -3.958999 -14.693579 -1.342170 -13.284265 -21.950942 -13.876396 193.337698 -137.496762 253.592739 -0.000001 -0.000002 0.000001 77.502519 1.600189 3.410916 -0.000003 0.000007 -3.003621 -5.000190 -7.999441 0.000073 -15.356504 39.317448 17.621446 -149.267651 146.589629 93.028734 0.000000 0.000001 0.000001 70.822320 -6.433890 -0.083935 -0.000000 -0.000012 3.010420 -5.000206 7.999315 -0.000087 -4.849997 -155.099581 5.725532 -179.999991 0.000006 -1.876003 169.699684 6.733739 -0.037238 -0.000001 0.000001 -1.161851 63.268391 7.892097 0.237386 25.283197 -7.355428 -0.177316 -7.278626 160.627526 -5.167957 -0.000004 -0.000005 -1.401370 -20.780330 -3.285306 0.080830 -0.000003 -0.000002 -0.398542 69.224418 -7.088929 -1.602007 25.402508 7.355595 0.061122 
58.831497 -11.645218 97.311806 -1.625204 -3.257122 4.105245 -0.975610 0.183563 -0.252525 2.052472 0.368977 -0.503692 3.697535 0.362917 -0.508075 7.170789 20.847433 -0.319127 -3.626638 -14.758980 -1.247351 -13.297012 -22.240925 -13.915161 193.332070 -136.910609 253.419170 -0.000001 -0.000000 0.000003 77.439134 1.590810 3.372460 -0.000004 0.000005 -3.003620 -5.000190 -7.999442 0.000073 -15.319978 39.540064 17.579993 -149.408148 145.948397 93.180227 0.000001 -0.000000 -0.000001 70.525036 -6.512632 -0.010980 -0.000000 -0.000011 3.010410 -5.000208 7.999314 -0.000087 -4.630252 -155.213371 5.881839 -179.999991 0.000005 -1.912994 170.310767 6.614149 -0.052347 -0.000001 0.000000 -1.178891 63.108011 7.872200 0.297297 25.335632 -7.355589 -0.123802 -7.091849 160.761302 -5.187860 -0.000004 -0.000005 -1.391550 -20.271641 -3.177880 0.093030 -0.000003 -0.000000 -0.382169 69.200581 -7.083747 -1.617381 25.418976 7.355604 0.042676 
58.831295 -11.634214 97.626701 -1.591924 -3.271130 4.040499 -0.967045 0.187348 -0.260453 2.069635 0.376547 -0.519550 3.714699 0.370297 -0.524023 6.737439 20.850093 -0.202269 -3.304427 -14.858353 -1.158362 -13.304101 -22.514544 -13.944047 193.314612 -136.303651 253.242596 0.000002 0.000000 0.000003 77.399738 1.577071 3.340865 -0.000004 0.000008 -3.003620 -5.000189 -7.999443 0.000073 -15.292100 39.789718 17.551231 -149.552142 145.343598 93.353380 0.000000 -0.000000 0.000001 70.214392 -6.588605 0.063526 -0.000001 -0.000012 3.010410 -5.000207 7.999313 -0.000088 -4.442884 -155.334457 6.018407 -179.999991 0.000005 -1.945997 170.860611 6.500146 -0.064620 -0.000001 0.000002 -1.192320 62.966961 7.851667 0.356002 25.383015 -7.355660 -0.075442 -6.924621 160.895105 -5.201908 -0.000005 -0.000002 -1.382191 -19.795063 -3.073571 0.103362 -0.000003 0.000000 -0.366752 69.177242 -7.078777 -1.632153 25.433830 7.355619 0.025994 
58.863094 -11.665913 97.960609 -1.551996 -3.281658 3.976604 -0.960634 0.189368 -0.268045 2.082486 0.380592 -0.534741 3.727540 0.374158 -0.539262 6.320020 20.893962 -0.092806 -2.994251 -14.996124 -1.075821 -13.304142 -22.767597 -13.960718 193.281267 -135.673566 253.059274 -0.000000 -0.000001 0.000002 77.387403 1.558667 3.316713 -0.000003 0.000005 -3.003620 -5.000189 -7.999439 0.000073 -15.274852 40.071449 17.537991 -149.701573 144.782389 93.553081 0.000001 0.000000 -0.000001 69.889091 -6.661080 0.140432 -0.000001 -0.000010 3.010400 -5.000206 7.999312 -0.000086 -4.294144 -155.460911 6.132111 -179.999991 0.000007 -1.974001 171.339079 6.393866 -0.074174 -0.000001 0.000003 -1.201861 62.848232 7.830893 0.412482 25.421600 -7.355657 -0.036101 -6.780264 161.027966 -5.210083 -0.000004 -0.000004 -1.373360 -19.356380 -2.972566 0.112020 -0.000002 0.000000 -0.352493 69.154846 -7.074099 -1.646023 25.445848 7.355615 0.012447 
58.832993 -11.634613 98.227402 -1.504398 -3.288129 3.913401 -0.956789 0.189270 -0.275207 2.090176 0.380408 -0.549075 3.735239 0.373802 -0.553594 5.921488 20.984807 0.009085 -2.697973 -15.176639 -1.000317 -13.295679 -22.996294 -13.962913 193.227718 -135.017827 252.864941 0.000000 -0.000000 0.000002 77.404744 1.535355 3.300851 -0.000003 0.000004 -3.003620 -5.000189 -7.999441 0.000074 -15.270592 40.390412 17.543421 -149.858544 144.272105 93.784323 0.000000 -0.000000 0.000000 69.547520 -6.729460 0.220045 -0.000001 -0.000011 3.010400 -5.000209 7.999314 -0.000087 -4.190199 -155.591750 6.220024 -179.999991 0.000006 -1.994998 171.736077 6.293499 -0.079835 -0.000001 0.000000 -1.207270 62.754501 7.810334 0.465767 25.447461 -7.355635 -0.009676 -6.662087 161.158969 -5.212355 -0.000005 -0.000004 -1.365118 -18.961679 -2.875064 0.119198 -0.000002 -0.000003 -0.339575 69.133536 -7.069805 -1.658792 25.453928 7.355617 0.003333 
58.793491 -11.566412 98.407005 -1.448068 -3.289922 3.850739 -0.955922 0.186701 -0.281846 2.091905 0.375295 -0.562365 3.736969 0.368531 -0.566821 5.544794 21.128497 0.103258 -2.417455 -15.404431 -0.932437 -13.277422 -23.196624 -13.948378 193.149198 -134.334098 252.655254 0.000004 -0.000000 0.000000 77.454646 1.506885 3.293804 -0.000003 0.000006 -3.003620 -5.000189 -7.999442 0.000072 -15.281898 40.751511 17.570785 -150.025214 143.820302 94.052197 0.000000 -0.000000 0.000001 69.188334 -6.793037 0.302915 -0.000000 -0.000010 3.010400 -5.000207 7.999311 -0.000088 -4.137145 -155.727070 6.279405 -179.999991 0.000004 -2.009997 172.041455 6.200181 -0.083947 -0.000001 0.000003 -1.208280 62.688781 7.790421 0.514857 25.456952 -7.355613 -0.000001 -6.573358 161.288128 -5.208867 -0.000005 -0.000006 -1.357559 -18.617033 -2.781243 0.125128 -0.000002 0.000001 -0.328190 69.113735 -7.065879 -1.670331 25.456962 7.355616 -0.000012 
58.795395 -11.563314 98.739807 -1.381034 -3.288407 3.790245 -0.958392 0.181613 -0.288315 2.086942 0.365158 -0.575310 3.732003 0.358239 -0.579643 5.189373 21.344206 0.190736 -2.153144 -15.697853 -0.871691 -13.248592 -23.357642 -13.914903 193.046554 -133.605535 252.436962 0.000002 -0.000001 0.000001 77.552707 1.468786 3.300993 -0.000003 0.000007 -3.003621 -5.000190 -7.999441 0.000074 -15.308308 41.168771 17.620215 -150.211720 143.436910 94.365668 0.000000 0.000000 0.000002 68.804942 -6.853695 0.390692 -0.000000 -0.000013 3.010390 -5.000209 7.999314 -0.000087 -4.135709 -155.868783 6.310327 -179.999991 0.000006 -2.018002 172.253642 6.116104 -0.087666 -0.000001 0.000000 -1.203740 62.652868 7.769816 0.562610 25.456953 -7.355615 -0.000002 -6.514141 161.417383 -5.197022 -0.000005 -0.000005 -1.350680 -18.316537 -2.692464 0.130260 -0.000001 -0.000000 -0.318091 69.093955 -7.062358 -1.680841 25.456955 7.355614 -0.000009 
58.769997 -11.544615 98.922791 -1.303033 -3.285253 3.733264 -0.963994 0.174376 -0.294975 2.075719 0.350745 -0.588642 3.720768 0.343667 -0.592802 4.850841 21.639240 0.274101 -1.902975 -16.065498 -0.816075 -13.210396 -23.475903 -13.863535 192.924772 -132.822714 252.218887 0.000002 -0.000001 0.000000 77.707383 1.418104 3.325549 -0.000003 0.000008 -3.003621 -5.000189 -7.999440 0.000074 -15.347468 41.646962 17.688725 -150.423906 143.121300 94.726084 0.000001 -0.000001 -0.000002 68.394236 -6.913806 0.483913 -0.000001 -0.000010 3.010390 -5.000207 7.999311 -0.000087 -4.179172 -156.018692 6.316564 -179.999991 0.000005 -2.022003 172.383251 6.045587 -0.091099 -0.000001 0.000003 -1.193100 62.644596 7.747124 0.612261 25.456957 -7.355615 0.000001 -6.480660 161.548549 -5.174999 -0.000004 -0.000004 -1.344440 -18.048760 -2.609519 0.135038 -0.000002 -0.000001 -0.308883 69.072576 -7.059100 -1.690699 25.456957 7.355618 -0.000012 
58.755795 -11.524918 99.196602 -1.215622 -3.280424 3.679247 -0.972274 0.165274 -0.301761 2.059115 0.332615 -0.602224 3.704161 0.325376 -0.606166 4.526563 22.001759 0.355246 -1.665083 -16.496807 -0.764071 -13.163849 -23.558665 -13.796698 192.785013 -131.994225 251.999092 0.000001 0.000000 0.000003 77.910294 1.357007 3.365168 -0.000003 0.000006 -3.003621 -5.000189 -7.999440 0.000073 -15.399042 42.176463 17.774801 -150.657239 142.864458 95.126203 0.000000 0.000000 -0.000001 67.959809 -6.973545 0.581425 0.000000 -0.000012 3.010390 -5.000209 7.999310 -0.000088 -4.262478 -156.174693 6.300731 -179.999991 0.000003 -2.020993 172.438412 5.985882 -0.094893 -0.000001 0.000004 -1.177000 62.661440 7.722716 0.663394 25.456955 -7.355614 -0.000001 -6.470301 161.682517 -5.144323 -0.000005 -0.000004 -1.338759 -17.811865 -2.531686 0.139635 -0.000002 -0.000002 -0.300518 69.050016 -7.056116 -1.699883 25.456955 7.355612 -0.000008 
58.712692 -11.404816 99.392998 -1.120370 -3.273866 3.627648 -0.982795 0.154584 -0.308599 2.038030 0.311330 -0.615920 3.683073 0.303928 -0.619606 4.214009 22.420163 0.435698 -1.437646 -16.981454 -0.714381 -13.110114 -23.613161 -13.716868 192.628437 -131.128731 251.775799 0.000002 -0.000001 0.000001 78.153190 1.287679 3.417506 -0.000003 0.000005 -3.003621 -5.000189 -7.999442 0.000073 -15.462479 42.748050 17.876931 -150.907224 142.657325 95.559128 -0.000001 0.000000 0.000000 67.505369 -7.033153 0.682472 0.000000 -0.000011 3.010381 -5.000208 7.999309 -0.000088 -4.380479 -156.338672 6.265773 -179.999991 0.000006 -2.017004 172.427306 5.936144 -0.100291 -0.000001 0.000001 -1.156101 62.700365 7.696978 0.715731 25.456957 -7.355613 -0.000000 -6.480547 161.818164 -5.106261 -0.000005 -0.000003 -1.333580 -17.603527 -2.458241 0.144220 -0.000003 -0.000001 -0.292957 69.026698 -7.053357 -1.708459 25.456955 7.355616 -0.000012 
